<?xml version="1.0" standalone="no"?>
<!DOCTYPE svg PUBLIC "-//W3C//DTD SVG 20010904//EN"
 "http://www.w3.org/TR/2001/REC-SVG-20010904/DTD/svg10.dtd">
<svg version="1.0" xmlns="http://www.w3.org/2000/svg"
 width="200.000000pt" height="200.000000pt" viewBox="0 0 200.000000 200.000000"
 preserveAspectRatio="xMidYMid meet">
<metadata>
Created by potrace 1.16, written by Peter Selinger 2001-2019
</metadata>
<g transform="translate(0.000000,200.000000) scale(0.100000,-0.100000)"
fill="#e7153a" stroke="none">
<path d="M0 1000 l0 -1000 1000 0 1000 0 0 1000 0 1000 -1000 0 -1000 0 0
-1000z m1694 574 c36 -36 31 -58 -45 -191 -80 -139 -124 -195 -177 -222 -33
-17 -34 -18 -35 -87 -2 -67 -4 -73 -86 -214 -95 -163 -107 -180 -130 -180 -27
0 -151 137 -265 293 -47 64 -62 77 -84 77 -31 0 -54 -15 -70 -44 -7 -15 -3
-30 21 -70 59 -99 164 -326 196 -420 37 -113 40 -160 10 -176 -49 -27 -64 -9
-279 362 -502 862 -483 826 -443 870 15 17 50 18 694 18 602 0 679 -2 693 -16z"/>
<path d="M564 1455 c-11 -46 4 -125 36 -181 25 -44 28 -58 20 -79 -6 -15 -10
-40 -10 -56 0 -31 44 -129 58 -129 5 0 16 24 25 54 19 60 72 116 110 116 13 0
46 -6 75 -13 28 -8 54 -12 56 -10 8 9 -54 101 -78 116 -13 9 -37 19 -54 24
-23 6 -40 22 -64 62 -34 56 -94 105 -140 116 -23 6 -28 3 -34 -20z"/>
<path d="M917 1355 l55 -95 177 0 c97 0 193 5 214 11 49 13 87 50 127 122 l31
57 -330 0 -330 0 56 -95z"/>
<path d="M1122 1000 c39 -66 72 -119 73 -118 2 2 26 43 54 91 79 138 74 147
-85 147 l-112 0 70 -120z"/>
</g>
</svg>
